<?xml version="1.0" encoding="UTF-8" standalone="no"?>
<!-- Created with Inkscape (http://www.inkscape.org/) -->

<svg
   version="1.1"
   id="svg2"
   width="666.66669"
   height="666.66669"
   viewBox="0 0 666.66669 666.66669"
   sodipodi:docname="Certifiedtocat_full (2).ai"
   xmlns:inkscape="http://www.inkscape.org/namespaces/inkscape"
   xmlns:sodipodi="http://sodipodi.sourceforge.net/DTD/sodipodi-0.dtd"
   xmlns="http://www.w3.org/2000/svg"
   xmlns:svg="http://www.w3.org/2000/svg">
  <defs
     id="defs6">
    <clipPath
       clipPathUnits="userSpaceOnUse"
       id="clipPath16">
      <path
         d="M 0,500 H 500 V 0 H 0 Z"
         id="path14" />
    </clipPath>
    <clipPath
       clipPathUnits="userSpaceOnUse"
       id="clipPath256">
      <path
         d="m 360.843,414.247 c -2.457,-1.714 -1.123,-7.871 2.978,-13.751 v 0 c 4.102,-5.88 9.419,-9.257 11.876,-7.543 v 0 c 2.457,1.713 1.123,7.869 -2.978,13.75 v 0 c -3.379,4.844 -7.583,7.99 -10.333,7.989 v 0 c -0.588,0 -1.11,-0.144 -1.543,-0.445"
         id="path254" />
    </clipPath>
    <clipPath
       clipPathUnits="userSpaceOnUse"
       id="clipPath276">
      <path
         d="M 0,500 H 500 V 0 H 0 Z"
         id="path274" />
    </clipPath>
    <clipPath
       clipPathUnits="userSpaceOnUse"
       id="clipPath288">
      <path
         d="M 339.017,412.504 H 363.64 V 374.5 h -24.623 z"
         id="path286" />
    </clipPath>
    <clipPath
       clipPathUnits="userSpaceOnUse"
       id="clipPath312">
      <path
         d="m 342.59,395.23 h 6.684 v -6.569 h -6.684 z"
         id="path310" />
    </clipPath>
    <clipPath
       clipPathUnits="userSpaceOnUse"
       id="clipPath328">
      <path
         d="m 348.979,396.89 h 7.769 v -8.293 h -7.769 z"
         id="path326" />
    </clipPath>
    <clipPath
       clipPathUnits="userSpaceOnUse"
       id="clipPath376">
      <path
         d="M 0,500 H 500 V 0 H 0 Z"
         id="path374" />
    </clipPath>
  </defs>
  <sodipodi:namedview
     id="namedview4"
     pagecolor="#ffffff"
     bordercolor="#000000"
     borderopacity="0.25"
     inkscape:showpageshadow="2"
     inkscape:pageopacity="0.0"
     inkscape:pagecheckerboard="0"
     inkscape:deskcolor="#d1d1d1" />
  <g
     id="g8"
     inkscape:groupmode="layer"
     inkscape:label="Certifiedtocat_full (2)"
     transform="matrix(1.3333333,0,0,-1.3333333,0,666.66667)">
    <g
       id="g10">
      <g
         id="g12"
         clip-path="url(#clipPath16)">
        <g
           id="g18"
           transform="translate(322,37)">
          <path
             d="m 0,0 c 0,-9.941 -43.428,-18 -97,-18 -53.572,0 -97,8.059 -97,18 0,9.941 43.428,18 97,18 C -43.428,18 0,9.941 0,0"
             style="fill:#9fdcf4;fill-opacity:1;fill-rule:nonzero;stroke:none"
             id="path20" />
        </g>
        <g
           id="g22"
           transform="translate(270.6667,212.3333)">
          <path
             d="m 0,0 c 6,-17.167 3.833,-119.5 -5.5,-141.333 12.333,-5.5 20.333,-12 20,-27.667 1.667,-5.333 1.833,-7.5 -1.333,-8.333 -10.716,-2.82 -41.5,-4.834 -48.334,29.166 -4.032,20.063 20.708,94.847 21.667,106.834 -4.833,-15.667 -32.167,-82.667 -45.667,-102 -10.005,-14.33 -18.5,-25.167 -41.166,-33.834 -6.419,-2.454 -18,-2 -15.834,2 6.167,10 13.696,26.662 19.167,35.5 4.333,7 11.667,14.334 12.667,16 6.296,10.495 61.5,100.834 68.666,124.334 C -8,0 -4,-0.167 0,0"
             style="fill:#1f1827;fill-opacity:1;fill-rule:nonzero;stroke:none"
             id="path24" />
        </g>
        <g
           id="g26"
           transform="translate(378.6459,391.029)">
          <path
             d="M 0,0 C 0,0 2.139,1.275 2.141,1.276 2.494,1.486 2.737,1.864 2.895,2.233 3.082,2.674 3.162,3.154 3.183,3.63 3.197,3.965 3.182,4.3 3.146,4.633 3.06,5.43 2.847,6.181 2.903,6.989 c 0.049,0.706 0.229,1.4 0.492,2.056 0.364,0.913 0.883,1.78 1.511,2.537 0.032,0.039 0.077,0.117 0.122,0.143 0,0 -19.366,-10.77 -19.366,-10.77 l 6.093,-3.694 z"
             style="fill:#b2ada3;fill-opacity:1;fill-rule:nonzero;stroke:none"
             id="path28" />
        </g>
        <g
           id="g30"
           transform="translate(106.625,200.3645)">
          <path
             d="m 0,0 c 13.25,0 20.821,7.943 26.125,14.25 0.676,-0.307 1.75,-0.5 3.875,1.375 17,-7.75 28.534,-8.707 67.875,-14 37.167,-5 43.333,-7.5 44.333,-10 2.4,5 6.124,11.499 5.417,14.25 -4.417,-0.083 -32.25,6.417 -53,13.75 -8.828,3.12 -60.978,26.884 -78.25,25.25 C 7.125,44 -6.06,42.71 -13.75,26.25 -20.875,11 -12.875,-5.5 -1.375,-7.125 0.125,-5.625 0.25,-1.875 0,0"
             style="fill:#1f1827;fill-opacity:1;fill-rule:nonzero;stroke:none"
             id="path32" />
        </g>
        <g
           id="g34"
           transform="translate(235.8969,172.68)">
          <path
             d="m 0,0 c 3.897,-0.487 7.866,-0.74 11.894,-0.74 9.065,0 17.832,1.271 26.135,3.643 -0.313,16.894 -1.388,31.387 -3.259,36.74 -4,-0.167 -8,0 -15.667,0.667 C 16.755,32.612 9.249,16.887 0,0"
             style="fill:#1f1827;fill-opacity:1;fill-rule:nonzero;stroke:none"
             id="path36" />
        </g>
        <g
           id="g38"
           transform="translate(105.875,203.2395)">
          <path
             d="m 0,0 c -0.671,-4.696 2.875,-18 -9.625,-5.125 -6.339,6.529 -9.256,23.812 0,34.75 C 5.5,47.5 28.125,41.75 37.125,38.5 c 9,-3.25 29.5,-9.25 38.25,-13.5 8.75,-4.25 35.535,-14.275 47.25,-18.375 15,-5.25 22.609,-4.652 27.25,-4.125 -2.125,-3 -4,-8 -4.75,-9.5 -3.5,0.875 -10.875,0.625 -25.25,6 -16.811,6.286 -35,21.625 -49.5,25.375 C 55.875,28.125 31.702,43.421 10.5,18.625 3.125,10 0.625,4.375 0,0"
             style="fill:#3a2c4c;fill-opacity:1;fill-rule:nonzero;stroke:none"
             id="path40" />
        </g>
        <g
           id="g42"
           transform="translate(366.5,256.4896)">
          <path
             d="M 0,0 C 0.833,0.333 16.167,-20.667 33.167,-12.167 36.5,-13.833 37.466,-16.267 40,-15 43.667,-13.167 35.446,17.733 20.167,25 6.5,31.5 -7.5,24.667 -21.5,14.5 -34.139,5.321 -57.618,-11.896 -74.333,-31 -79,-36.333 -90.667,-43.667 -96.5,-47.5 c 0.167,-4.667 0.833,-12.167 1,-17.667 4.667,9.667 14.833,18.167 26.667,23.834 C -54.446,-34.444 -3.881,-1.552 0,0"
             style="fill:#1f1827;fill-opacity:1;fill-rule:nonzero;stroke:none"
             id="path44" />
        </g>
        <g
           id="g46"
           transform="translate(295,240.3229)">
          <path
             d="m 0,0 c -3.534,-7.068 63.333,113 63.667,138.667 0.333,25.666 -13.667,32.666 -31,28 -13.481,-3.63 -34.625,-22.334 -14.292,-45 3.599,-4.012 6.5,-6.125 8.5,-7.75 -2,-4.875 -0.375,-5.75 1.5,-5.25 2.323,0.619 -24.375,-84 -32.042,-97 C -5.333,2.667 1,2 0,0"
             style="fill:#1f1827;fill-opacity:1;fill-rule:nonzero;stroke:none"
             id="path48" />
        </g>
        <g
           id="g50"
           transform="translate(339.5833,367.1562)">
          <path
             d="m 0,0 c 2.586,1.739 5.189,3.452 7.794,5.162 3.231,2.121 6.469,4.232 9.708,6.341 3.25,2.116 6.503,4.228 9.755,6.34 2.645,1.718 5.292,3.435 7.934,5.157 0.642,0.419 1.284,0.838 1.926,1.258 0.844,0.553 1.634,0.98 1.925,2.014 0.167,0.597 0.203,1.254 0.204,1.87 0.004,1.419 -0.288,2.83 -0.713,4.178 -1.002,3.177 -2.749,6.123 -4.776,8.749 -1.975,2.558 -4.314,4.954 -7.065,6.679 -1.916,1.203 -4.469,2.347 -6.744,1.498 C 19.881,49.221 19.815,49.195 19.75,49.167 10.917,41.208 0.417,29.083 -3.917,24.833 -5.25,21.333 -4.68,4.629 0,0"
             style="fill:#e0dcce;fill-opacity:1;fill-rule:nonzero;stroke:none"
             id="path52" />
        </g>
        <g
           id="g54"
           transform="translate(301.1667,255.3229)">
          <path
             d="m 0,0 c -3.701,-7.403 53.083,108.917 52.417,121.083 -3.5,-2.083 -11.584,-7.583 -14,-9.25 2,-8 -9.834,-16.5 -15.667,-18.166 C 17,72.667 -1.667,16.667 -4.5,10 -7.333,3.333 0.167,0.333 0,0"
             style="fill:#3a2c4c;fill-opacity:1;fill-rule:nonzero;stroke:none"
             id="path56" />
        </g>
        <g
           id="g58"
           transform="translate(312.375,363.1146)">
          <path
             d="m 0,0 c 2.688,-3.313 6.125,-6.5 8.75,-8.125 -3.5,-2.25 -9.25,-6.25 -12,-7.75 -2.375,0.5 -4.625,2.417 -4.25,6.875 2.375,2.667 6.833,8.167 7.5,9"
             style="fill:#e0dcce;fill-opacity:1;fill-rule:nonzero;stroke:none"
             id="path60" />
        </g>
        <g
           id="g62"
           transform="translate(314.6762,292.0183)">
          <path
             d="m 0,0 c -1.777,-4.483 -4.152,-7.746 -5.306,-7.289 -1.154,0.457 -0.649,4.462 1.128,8.945 1.777,4.483 4.153,7.746 5.306,7.289 C 2.282,8.488 1.777,4.483 0,0"
             style="fill:#9ac6c9;fill-opacity:1;fill-rule:nonzero;stroke:none"
             id="path64" />
        </g>
        <g
           id="g66"
           transform="translate(324.5062,316.0097)">
          <path
             d="m 0,0 c -1.929,-4.419 -4.671,-7.488 -6.124,-6.854 -1.453,0.635 -1.067,4.731 0.862,9.151 1.93,4.419 4.672,7.488 6.124,6.854 C 2.315,8.516 1.929,4.419 0,0"
             style="fill:#9ac6c9;fill-opacity:1;fill-rule:nonzero;stroke:none"
             id="path68" />
        </g>
        <g
           id="g70"
           transform="translate(333.2454,338.8349)">
          <path
             d="m 0,0 c -2.013,-4.611 -4.874,-7.813 -6.39,-7.151 -1.516,0.661 -1.113,4.936 0.9,9.548 2.013,4.611 4.874,7.813 6.39,7.151 C 2.416,8.886 2.013,4.611 0,0"
             style="fill:#9ac6c9;fill-opacity:1;fill-rule:nonzero;stroke:none"
             id="path72" />
        </g>
        <g
           id="g74"
           transform="translate(339.5833,367.1562)">
          <path
             d="M 0,0 C 0.542,-2.167 -0.083,-6.792 -3.083,-9.167 -2.958,-10.25 5.375,-8.708 5.792,3.958 3.625,2.458 0,0 0,0"
             style="fill:#9ac6c9;fill-opacity:1;fill-rule:nonzero;stroke:none"
             id="path76" />
        </g>
        <g
           id="g78"
           transform="translate(304.3846,267.56)">
          <path
             d="m 0,0 c -1.777,-4.483 -4.152,-7.746 -5.306,-7.289 -1.154,0.457 -0.649,4.462 1.128,8.945 1.777,4.483 4.153,7.746 5.306,7.289 C 2.282,8.488 1.777,4.483 0,0"
             style="fill:#9ac6c9;fill-opacity:1;fill-rule:nonzero;stroke:none"
             id="path80" />
        </g>
        <g
           id="g82"
           transform="translate(278,202.9895)">
          <path
             d="M 0,0 C 7.625,6.625 7.402,8.266 28.375,20.5 46.375,31 52.667,40.667 63.667,55.833 74.667,71 84.5,78 92,80.667 75.5,76.25 51.146,57.921 29.5,37.5 22.875,31.25 15.375,25.75 9,17.875 5,9.542 3.333,6.667 3.333,6.667 3.333,6.667 0.333,0.833 0,0"
             style="fill:#3a2c4c;fill-opacity:1;fill-rule:nonzero;stroke:none"
             id="path84" />
        </g>
        <g
           id="g86"
           transform="translate(316.6205,235.0418)">
          <path
             d="m 0,0 c -3.615,-3.059 -7.655,-4.229 -9.022,-2.613 -1.368,1.616 0.454,5.406 4.07,8.465 3.615,3.06 7.654,4.23 9.022,2.613 C 5.437,6.849 3.615,3.059 0,0"
             style="fill:#9ac6c9;fill-opacity:1;fill-rule:nonzero;stroke:none"
             id="path88" />
        </g>
        <g
           id="g90"
           transform="translate(333.3333,255.3229)">
          <path
             d="m 0,0 c -3.265,-3.351 -7.045,-5.317 -8.473,-3.755 -0.872,0.954 -0.601,2.751 0.528,4.724 C -5.583,3.083 -0.5,7.164 2,8.833 3.417,9.833 3.886,9.149 4.417,8.5 5.167,7.583 3.167,3.25 0,0"
             style="fill:#9ac6c9;fill-opacity:1;fill-rule:nonzero;stroke:none"
             id="path92" />
        </g>
        <g
           id="g94"
           transform="translate(295.3492,220.0167)">
          <path
             d="M 0,0 C -3.818,-2.948 -7.561,-4.5 -8.36,-3.465 -9.159,-2.43 -6.712,0.8 -2.895,3.748 0.923,6.697 4.666,8.248 5.466,7.213 6.265,6.178 3.818,2.948 0,0"
             style="fill:#9ac6c9;fill-opacity:1;fill-rule:nonzero;stroke:none"
             id="path96" />
        </g>
        <g
           id="g98"
           transform="translate(344.4167,270.7396)">
          <path
             d="M 0,0 C -4.167,-4.667 4.417,-0.75 12.167,7.667 8.167,5.417 1.75,1.333 0,0"
             style="fill:#9ac6c9;fill-opacity:1;fill-rule:nonzero;stroke:none"
             id="path100" />
        </g>
        <g
           id="g102"
           transform="translate(110.3577,224.0222)">
          <path
             d="m 0,0 c -4.41,-4.768 -9.957,-6.809 -12.39,-4.559 -2.433,2.25 -0.83,7.939 3.581,12.707 4.41,4.768 9.957,6.809 12.39,4.559 C 6.013,10.457 4.41,4.768 0,0"
             style="fill:#9ac6c9;fill-opacity:1;fill-rule:nonzero;stroke:none"
             id="path104" />
        </g>
        <g
           id="g106"
           transform="translate(148.512,239.2423)">
          <path
             d="m 0,0 c -0.146,-1.048 -5.36,-1.189 -11.646,-0.314 -6.286,0.875 -11.264,2.435 -11.118,3.483 0.146,1.049 5.36,1.189 11.646,0.314 C -4.832,2.608 0.146,1.048 0,0"
             style="fill:#9ac6c9;fill-opacity:1;fill-rule:nonzero;stroke:none"
             id="path108" />
        </g>
        <g
           id="g110"
           transform="translate(235.6711,205.8206)">
          <path
             d="M 0,0 C 4.94,-1.382 8.673,-3.475 8.337,-4.675 8.002,-5.875 3.725,-5.727 -1.215,-4.345 -6.156,-2.963 -9.888,-0.87 -9.553,0.33 -9.217,1.53 -4.94,1.382 0,0"
             style="fill:#9ac6c9;fill-opacity:1;fill-rule:nonzero;stroke:none"
             id="path112" />
        </g>
        <g
           id="g114"
           transform="translate(212.2524,215.6792)">
          <path
             d="M 0,0 C 4.631,-2.382 7.905,-5.244 7.314,-6.393 6.723,-7.542 2.49,-6.543 -2.14,-4.162 -6.771,-1.78 -10.046,1.082 -9.455,2.232 -8.864,3.381 -4.631,2.382 0,0"
             style="fill:#9ac6c9;fill-opacity:1;fill-rule:nonzero;stroke:none"
             id="path116" />
        </g>
        <g
           id="g118"
           transform="translate(296.5676,259.6335)">
          <path
             d="M 0,0 C 3.711,0.838 15.34,4.328 18.674,5.837 22.007,7.346 20.116,3.516 16.468,2.205 12.819,0.895 3.665,-1.874 0.481,-1.891 -2.703,-1.907 -1.028,-0.232 0,0"
             style="fill:#1f1827;fill-opacity:1;fill-rule:nonzero;stroke:none"
             id="path120" />
        </g>
        <g
           id="g122"
           transform="translate(298.4144,253.2825)">
          <path
             d="m 0,0 c -2.186,-0.601 11.438,1.136 15.721,0.458 4.283,-0.677 5.748,2.431 1.922,2.848 C 13.818,3.723 3.295,2.916 0.584,2.093 -2.127,1.27 0.719,0.198 0,0"
             style="fill:#1f1827;fill-opacity:1;fill-rule:nonzero;stroke:none"
             id="path124" />
        </g>
        <g
           id="g126"
           transform="translate(195.2083,222.3645)">
          <path
             d="m 0,0 c -9.833,10.917 -18.042,38.375 -11.542,54.958 -2.25,5.667 -4.333,29.584 -1.083,33.084 3.25,3.5 19.333,3.25 24.917,1.666 18.75,12.667 46,9.917 55.75,8.75 4.25,2.417 14,2.5 15,1.5 2.378,-2.378 4.166,-6.666 5.25,-9.666 2.5,-2.25 10.19,-9.263 11.333,-21.167 1,-10.417 -2.207,-14.233 0.417,-21 3.033,-7.824 5.887,-15.233 5.25,-25.75 -0.726,-11.981 -14.25,-25.75 -21.334,-31.333 -7.762,-6.119 -18,-8.75 -28.166,-7.084 -4.047,0.664 -7.669,1.41 -23.084,5.417 C 18.869,-7.028 11.333,-4.312 0,0"
             style="fill:#1f1827;fill-opacity:1;fill-rule:nonzero;stroke:none"
             id="path128" />
        </g>
        <g
           id="g130"
           transform="translate(208.8333,248.4895)">
          <path
             d="m 0,0 c -0.349,4.533 -4.981,11.239 -6.667,19.5 -1.94,9.507 -0.22,21.308 9.5,29.333 13.292,10.975 23.821,-0.102 43.334,3.667 14.666,2.833 19.032,12.015 29.5,5.75 11,-6.583 7.75,-25.167 9.25,-36.5 6.602,-10.833 9.25,-27.75 1.25,-37 C 73.366,-30.051 70,-37.5 57.417,-39.75 51.374,-40.83 41.38,-38.084 30.667,-35.5 18.691,-32.612 6.114,-30.158 3.167,-24 -2.678,-11.788 0.5,-6.5 0,0"
             style="fill:#f9d3ab;fill-opacity:1;fill-rule:nonzero;stroke:none"
             id="path132" />
        </g>
        <g
           id="g134"
           transform="translate(274.5,257.1146)">
          <path
             d="m 0,0 c -4.25,-9.5 -16.625,-14.375 -31.5,-6.75 -2.75,1.875 9.51,-27.863 16.333,-32.542 4.375,-3 10,-3.166 10.292,1.542 C -4.465,-31.137 -0.5,-1.125 0,0"
             style="fill:#42204f;fill-opacity:1;fill-rule:nonzero;stroke:none"
             id="path136" />
        </g>
        <g
           id="g138"
           transform="translate(258.1268,259.3154)">
          <path
             d="M 0,0 C -0.408,-1.574 6.154,-0.749 7.279,0.744 8.498,2.362 1.154,4.454 0,0"
             style="fill:#a24f3f;fill-opacity:1;fill-rule:nonzero;stroke:none"
             id="path140" />
        </g>
        <g
           id="g142"
           transform="translate(243.1984,272.1053)">
          <path
             d="m 0,0 c 3.614,-6.603 4.167,-13.474 1.737,-17.106 -4.506,1.49 -8.124,1.74 -12.754,1.386 -1.823,1.786 -3.56,4.111 -5.062,6.854 -4.449,8.129 -5.14,16.843 -0.457,19.242 C -11.853,12.774 -4.449,8.129 0,0"
             style="fill:#d9e9e6;fill-opacity:1;fill-rule:nonzero;stroke:none"
             id="path144" />
        </g>
        <g
           id="g146"
           transform="translate(242.0126,262.1353)">
          <path
             d="m 0,0 c 0.781,-2.329 0.931,-4.618 0.542,-6.457 -2.384,0.749 -7.165,1.061 -9.96,0.718 -0.414,0.751 -0.777,1.571 -1.071,2.448 -1.6,4.771 -0.549,9.376 2.347,10.285 C -5.246,7.903 -1.6,4.772 0,0"
             style="fill:#a24f3f;fill-opacity:1;fill-rule:nonzero;stroke:none"
             id="path148" />
        </g>
        <g
           id="g150"
           transform="translate(272.625,261.3646)">
          <path
             d="m 0,0 c -0.125,7.75 0.048,20.085 1.25,25.75 0.875,4.125 6.626,8.852 8.5,-2.125 C 10.625,18.5 11,12.25 8.75,5.25 6.75,5 1.5,1.875 0,0"
             style="fill:#d9e9e6;fill-opacity:1;fill-rule:nonzero;stroke:none"
             id="path152" />
        </g>
        <g
           id="g154"
           transform="translate(279.1532,268.4167)">
          <path
             d="m 0,0 c -0.023,-0.998 -0.133,-1.95 -0.312,-2.821 -1.404,-0.544 -4.154,-2.231 -5.288,-3.4 -0.398,0.619 -0.729,1.425 -0.969,2.361 -0.022,1.558 -0.022,5.683 0.006,7.364 0.628,2.538 1.864,4.268 3.247,4.235 C -1.385,7.694 0.099,4.229 0,0"
             style="fill:#a24f3f;fill-opacity:1;fill-rule:nonzero;stroke:none"
             id="path156" />
        </g>
        <g
           id="g158"
           transform="translate(252.8333,225.9895)">
          <path
             d="M 0,0 C -0.989,1.738 12.313,2.438 14.979,-5.562 15.974,-9.334 14.729,-11.125 10.479,-10 8.428,-9.457 4.945,-8.694 0,0"
             style="fill:#e5b3b3;fill-opacity:1;fill-rule:nonzero;stroke:none"
             id="path160" />
        </g>
        <g
           id="g162"
           transform="translate(238.5811,268.5972)">
          <path
             d="m 0,0 c 0.551,-1.269 0.069,-2.675 -1.076,-3.14 -1.145,-0.465 -2.52,0.187 -3.07,1.457 -0.551,1.269 -0.069,2.675 1.076,3.14 C -1.925,1.922 -0.551,1.269 0,0"
             style="fill:#f7f8f8;fill-opacity:1;fill-rule:nonzero;stroke:none"
             id="path164" />
        </g>
        <g
           id="g166"
           transform="translate(278.5093,275.2663)">
          <path
             d="M 0,0 C 0.437,-1.042 0.055,-2.196 -0.854,-2.578 -1.764,-2.96 -2.855,-2.424 -3.293,-1.382 -3.73,-0.34 -3.348,0.814 -2.438,1.196 -1.529,1.578 -0.437,1.042 0,0"
             style="fill:#f7f8f8;fill-opacity:1;fill-rule:nonzero;stroke:none"
             id="path168" />
        </g>
        <g
           id="g170"
           transform="translate(229.1875,255.3645)">
          <path
             d="M 0,0 C 6.125,2.125 15.354,-0.542 18.188,-1.875 15.938,1.063 5.313,3.125 0,0"
             style="fill:#a24f3f;fill-opacity:1;fill-rule:nonzero;stroke:none"
             id="path172" />
        </g>
        <g
           id="g174"
           transform="translate(271.6667,259.9062)">
          <path
             d="M 0,0 C 1.521,2.833 7.081,7.069 12,7.167 8.333,5.667 4.25,4.417 0,0"
             style="fill:#a24f3f;fill-opacity:1;fill-rule:nonzero;stroke:none"
             id="path176" />
        </g>
        <g
           id="g178"
           transform="translate(237.375,247.9895)">
          <path
             d="M 0,0 C 2.792,1.625 4.75,2.792 6.125,4.25 6.25,3.813 5.687,3 5.312,2.5 6.187,2.083 17.625,-3.042 25.917,-0.542 32.061,1.311 36.313,8.313 37.313,9.813 37.813,9.281 39.313,8.5 40.688,8.75 39.938,8.219 38.031,8.031 37.031,8.344 35.563,6.094 31.868,0.69 26.083,-0.917 23.833,-1.542 16.75,-2.792 4.875,2.167 2.625,0.187 1,0.5 0,0"
             style="fill:#a24f3f;fill-opacity:1;fill-rule:nonzero;stroke:none"
             id="path180" />
        </g>
        <g
           id="g182"
           transform="translate(223.6875,273.1146)">
          <path
             d="M 0,0 C -2.167,10.833 7.688,15.313 15.625,4.687 9.75,9.625 0.5,15.313 0,0"
             style="fill:#a24f3f;fill-opacity:1;fill-rule:nonzero;stroke:none"
             id="path184" />
        </g>
        <g
           id="g186"
           transform="translate(273,282.8229)">
          <path
             d="M 0,0 C 1.187,10.104 6.792,14.542 9.125,3.917 7.625,6.667 5,15.292 0,0"
             style="fill:#a24f3f;fill-opacity:1;fill-rule:nonzero;stroke:none"
             id="path188" />
        </g>
        <g
           id="g190"
           transform="translate(204,235.8229)">
          <path
             d="m 0,0 c -2.328,-1.481 -13.667,-10.333 -14.5,-10.833 -0.833,-0.5 -2.5,1.5 -3.333,1.333 C -18.667,-9.667 -4.5,1 -2.5,1.5 -0.5,2 1.833,1.167 0,0"
             style="fill:#1f1827;fill-opacity:1;fill-rule:nonzero;stroke:none"
             id="path192" />
        </g>
        <g
           id="g194"
           transform="translate(201.6667,241.3229)">
          <path
             d="m 0,0 c -2.612,-0.653 -12.667,-5.833 -15,-7.833 -2.333,-2 -7.667,-2.334 -2.667,1.833 5,4.167 14.667,8 17.167,8.5 C 2,3 1.333,0.333 0,0"
             style="fill:#1f1827;fill-opacity:1;fill-rule:nonzero;stroke:none"
             id="path196" />
        </g>
        <g
           id="g198"
           transform="translate(322.8333,229.8229)">
          <path
             d="m 0,0 c 10.5,5.5 37.667,25.167 41.917,25.917 4.25,0.75 14.674,-13.513 27,-12.75 8.083,0.5 14.416,6.166 1.75,7.25 C 60.418,21.293 48,22.333 51.667,31.667 48.167,29.833 44,27.5 46.5,30.333 48.227,32.29 49.333,38.5 49.667,43.917 48.417,39.417 45,34.333 41.167,29.833 29.18,19.703 11.167,8.167 0,0"
             style="fill:#18121d;fill-opacity:1;fill-rule:nonzero;stroke:none"
             id="path200" />
        </g>
        <g
           id="g202"
           transform="translate(327,357.3229)">
          <path
             d="m 0,0 c 2.373,0.508 9.565,6.061 10.75,12.292 -1.25,3.5 -6.68,20.326 -0.375,25.5 3.984,3.269 5.5,5.25 7.25,6.875 -5.25,0.375 -17.74,-1.25 -16.375,-19 C 2.375,11.042 1.125,8.042 -4.667,4.333 -10.454,0.628 -4.667,-1 0,0"
             style="fill:#18121d;fill-opacity:1;fill-rule:nonzero;stroke:none"
             id="path204" />
        </g>
        <g
           id="g206"
           transform="translate(105.4167,198.0729)">
          <path
             d="m 0,0 c 3,4.167 13.5,-0.417 27,15.833 1.5,0.084 2.583,0.584 3.833,2.584 24.25,-11.25 47.75,-12.25 73.25,-15.25 -37.25,7.75 -69.416,17.166 -70.166,18.166 1.083,1.334 1.666,4.584 1.416,6.584 C 34.25,25.833 31.25,21 29.167,19.667 25.483,17.309 9.333,4.083 1.333,6.667 0.167,5.5 -0.083,1.667 0,0"
             style="fill:#18121d;fill-opacity:1;fill-rule:nonzero;stroke:none"
             id="path208" />
        </g>
        <g
           id="g210"
           transform="translate(274.5,210.5208)">
          <path
             d="M 0,0 C 4.292,2.552 9.417,7.094 11.958,9.552 11.75,8.885 6.875,-0.781 6.083,-1.948 5.708,-1.823 0.417,-0.156 0,0"
             style="fill:#18121d;fill-opacity:1;fill-rule:nonzero;stroke:none"
             id="path212" />
        </g>
        <g
           id="g214"
           transform="translate(182,270.3646)">
          <path
             d="M 0,0 C 0.625,-7 4.25,-17.625 10.125,-30 9.156,-30.563 5.656,-32.313 4.687,-33.063 2.688,-28.438 -2.688,-10.375 0,0"
             style="fill:#18121d;fill-opacity:1;fill-rule:nonzero;stroke:none"
             id="path216" />
        </g>
        <g
           id="g218"
           transform="translate(187.9062,234.427)">
          <path
             d="m 0,0 c 0.469,-1.25 1.896,-4.052 2.302,-4.708 0.531,0.312 4.479,3.271 5.667,4.021 C 7.531,0.031 6.062,2.781 5.781,3.219 5.156,3 0.656,0.344 0,0"
             style="fill:#18121d;fill-opacity:1;fill-rule:nonzero;stroke:none"
             id="path220" />
        </g>
        <g
           id="g222"
           transform="translate(191.9375,226.7395)">
          <path
             d="M 0,0 C 0.792,-1.229 2.391,-3.594 3.203,-4.344 5.036,-5.26 15.771,-9.125 16.729,-9.229 12.542,-6.417 6.104,3.479 5.604,4.333 5.022,3.824 0.667,0.542 0,0"
             style="fill:#18121d;fill-opacity:1;fill-rule:nonzero;stroke:none"
             id="path224" />
        </g>
        <g
           id="g226"
           transform="translate(199,243.3645)">
          <path
             d="m 0,0 c -7.292,8.625 -19,48.875 -2.125,59 9.01,5.406 9.875,7.375 7.5,7.25 L 3,66.125 c 0,0 -14.375,2.25 -16,-0.5 -2.105,-3.563 0.375,-20.125 1.125,-24.5 0.75,-4.375 -2.5,-4.75 -2.75,-7.875 0.75,-7.625 11.125,-33 12.5,-34 C -1.5,-0.5 -0.5,-0.167 0,0"
             style="fill:#18121d;fill-opacity:1;fill-rule:nonzero;stroke:none"
             id="path228" />
        </g>
        <g
           id="g230"
           transform="translate(272.375,318.1146)">
          <path
             d="M 0,0 C 4.75,-1.333 8.083,-3.5 9.25,-4.375 8.792,-2.667 7.208,2.083 5.375,2.833 4.05,3.375 1.042,1.292 0,0"
             style="fill:#18121d;fill-opacity:1;fill-rule:nonzero;stroke:none"
             id="path232" />
        </g>
        <g
           id="g234"
           transform="translate(372.7188,406.7026)">
          <path
             d="m 0,0 c 4.102,-5.88 5.435,-12.036 2.978,-13.75 -2.457,-1.714 -7.774,1.663 -11.875,7.544 -4.102,5.88 -5.435,12.036 -2.978,13.75 C -9.418,9.258 -4.102,5.88 0,0"
             style="fill:#98948f;fill-opacity:1;fill-rule:nonzero;stroke:none"
             id="path236" />
        </g>
        <g
           id="g238"
           transform="translate(364.8333,395.3229)">
          <path
             d="m 0,0 c 2.771,-2.333 9.625,-4.896 11.792,-3.896 2.166,1 -33.188,-21.5 -37.188,-24.437 -1.562,1.125 -1.729,3.815 -2.479,4.961 C -25.208,-21.205 -1.125,-1.437 0,0"
             style="fill:#cdc9bc;fill-opacity:1;fill-rule:nonzero;stroke:none"
             id="path240" />
        </g>
        <g
           id="g242"
           transform="translate(370.7553,392.1612)">
          <path
             d="m 0,0 c 4.535,-1.878 7.549,-0.991 9.715,0.009 2.167,1 -30.443,-17.459 -34.443,-20.396 -1.562,1.125 0.75,-1.146 0,0 C -22.061,-18.221 -1.125,-1.437 0,0"
             style="fill:#cdc9bc;fill-opacity:1;fill-rule:nonzero;stroke:none"
             id="path244" />
        </g>
        <g
           id="g246"
           transform="translate(221.6667,214.0729)">
          <path
             d="m 0,0 c 11.333,-4.167 27.528,-8.779 30.75,-8.25 1.167,0.5 1.625,1.125 2.833,1.583 C 26.5,-6.25 3.667,-1.167 0,0"
             style="fill:#18121d;fill-opacity:1;fill-rule:nonzero;stroke:none"
             id="path248" />
        </g>
      </g>
    </g>
    <g
       id="g250">
      <g
         id="g252"
         clip-path="url(#clipPath256)">
        <g
           id="g258"
           transform="translate(353.4901,370.4541)">
          <path
             d="M 0,0 C 5.824,6.022 20.083,20.162 23.111,23.254 24.607,30.45 13.218,44.133 8.707,41.043 3.624,33.984 -2.193,23.447 -4.657,19.706 -5.23,16.79 -5.853,2.868 0,0"
             style="fill:#cdc9bc;fill-opacity:1;fill-rule:nonzero;stroke:none"
             id="path260" />
        </g>
        <g
           id="g262"
           transform="translate(371.7368,404.738)">
          <path
             d="M 0,0 C 3.172,-4.432 4.562,-9.29 3.106,-10.852 1.65,-12.413 -2.102,-10.085 -5.273,-5.653 -8.445,-1.221 -9.836,3.637 -8.38,5.198 -6.923,6.76 -3.172,4.432 0,0"
             style="fill:#98948f;fill-opacity:1;fill-rule:nonzero;stroke:none"
             id="path264" />
        </g>
        <g
           id="g266"
           transform="translate(367.5613,394.9942)">
          <path
             d="m 0,0 c 2.004,-1.674 6.688,-3.232 8.016,-2.267 1.327,0.964 -19.81,-19.758 -22.168,-22.418 -1.114,0.791 -1.969,2.255 -2.555,3.123 C -15.152,-19.621 -0.611,-1.24 0,0"
             style="fill:#bcb8af;fill-opacity:1;fill-rule:nonzero;stroke:none"
             id="path268" />
        </g>
      </g>
    </g>
    <g
       id="g270">
      <g
         id="g272"
         clip-path="url(#clipPath276)">
        <g
           id="g278"
           transform="translate(317.375,357.9896)">
          <path
             d="m 0,0 c -1.187,-1.271 -9.125,-8.563 -10.375,-9.688 0.937,-1.125 1.437,-0.937 2.167,-1.145 1.833,1.166 11.166,7.125 11.833,7.958 C 2.75,-2.438 0.875,-0.937 0,0"
             style="fill:#cdc9bc;fill-opacity:1;fill-rule:nonzero;stroke:none"
             id="path280" />
        </g>
        <g
           id="g282">
          <g
             id="g284" />
          <g
             id="g296">
            <g
               clip-path="url(#clipPath288)"
               opacity="0.100006"
               id="g294">
              <g
                 transform="translate(357.3196,391.904)"
                 id="g292">
                <path
                   d="m 0,0 c -0.067,0.059 -0.133,0.117 -0.2,0.173 -0.152,0.128 -0.304,0.249 -0.456,0.358 -0.01,0.007 -0.019,0.015 -0.028,0.021 0.907,0.414 1.784,0.865 2.308,1.665 0.944,1.438 0.434,3.511 0.802,5.198 0.354,1.626 1.728,3.415 1.437,5.095 -0.288,1.669 -2.1,2.535 -2.931,3.784 -0.852,1.281 -1.036,3.328 -2.302,4.069 -0.206,0.12 -0.433,0.188 -0.669,0.237 -5.925,-5.782 -12.047,-12.537 -16.264,-17.037 0.375,-0.423 0.75,-0.84 1.008,-1.307 0.709,-1.278 0.831,-3.27 1.939,-4.116 0.631,-0.481 1.472,-0.509 2.34,-0.494 -0.02,-0.029 -0.04,-0.056 -0.06,-0.085 -0.016,-0.023 -0.031,-0.044 -0.047,-0.067 -2.477,-3.697 -3.96,-11.46 -3.717,-14.126 2.373,2.519 2.495,3.469 4.694,4.982 0.86,-1.575 1.45,-2.569 4.367,-5.754 -0.503,4.848 -0.381,8.911 -0.053,13.744 0.395,-0.089 0.796,-0.117 1.203,-0.026 0.554,0.123 1.038,0.444 1.492,0.842 0.169,-0.533 0.339,-1.069 0.499,-1.589 v 0 c 1.052,-3.417 1.915,-6.661 2.539,-10.136 0.901,0.587 1.761,1.015 2.665,1.603 0.41,1.004 0.646,2.017 0.888,2.932 0.776,-0.294 1.457,-0.963 1.971,-1.274 0.91,0.592 2.007,1.094 2.895,1.671 C 4.824,-6.312 2.257,-1.998 0,0"
                   style="fill:#232930;fill-opacity:1;fill-rule:nonzero;stroke:none"
                   id="path290" />
              </g>
            </g>
          </g>
        </g>
        <g
           id="g298"
           transform="translate(350.6903,395.9901)">
          <path
             d="m 0,0 c 1.105,1.387 -0.149,1.078 -1.298,-0.29 -1.315,-1.567 0.878,-3.043 1.434,-4.778 1.697,-5.293 2.94,-9.68 3.692,-15.149 2.262,4.127 2.629,5.332 3.13,7.222 2.72,-1.032 3.095,-2.005 6.261,-4.056 -0.524,3.478 -5.624,14.171 -9.778,15.358 z"
             style="fill:#a41f24;fill-opacity:1;fill-rule:nonzero;stroke:none"
             id="path300" />
        </g>
        <g
           id="g302"
           transform="translate(347.414,394.4817)">
          <path
             d="m 0,0 c -1.287,0.995 -0.102,0.993 1.22,0.025 1.515,-1.11 -0.118,-2.904 -0.235,-4.572 -0.357,-5.088 -0.507,-9.271 0.016,-14.309 -2.917,3.185 -3.507,4.179 -4.366,5.754 -2.2,-1.514 -2.322,-2.463 -4.695,-4.982 -0.293,3.214 1.919,13.859 5.362,15.823 z"
             style="fill:#a41f24;fill-opacity:1;fill-rule:nonzero;stroke:none"
             id="path304" />
        </g>
        <g
           id="g306">
          <g
             id="g308" />
          <g
             id="g320">
            <g
               clip-path="url(#clipPath312)"
               opacity="0.199997"
               id="g318">
              <g
                 transform="translate(348.6341,394.5063)"
                 id="g316">
                <path
                   d="m 0,0 c -1.322,0.968 -2.508,0.97 -1.22,-0.025 l -2.698,-2.26 c -0.778,-0.444 -1.488,-1.345 -2.126,-2.489 1.097,-0.365 2.529,-0.018 3.71,-0.264 0.657,-0.137 1.328,-0.498 2.015,-0.807 0.027,0.421 0.054,0.84 0.084,1.274 C -0.118,-2.903 1.515,-1.109 0,0"
                   style="fill:#232930;fill-opacity:1;fill-rule:nonzero;stroke:none"
                   id="path314" />
              </g>
            </g>
          </g>
        </g>
        <g
           id="g322">
          <g
             id="g324" />
          <g
             id="g336">
            <g
               clip-path="url(#clipPath328)"
               opacity="0.199997"
               id="g334">
              <g
                 transform="translate(356.748,392.508)"
                 id="g332">
                <path
                   d="m 0,0 c -0.88,0.893 -1.768,1.546 -2.616,1.789 l -3.442,1.693 c 1.105,1.387 -0.149,1.078 -1.297,-0.29 -1.316,-1.567 0.877,-3.042 1.433,-4.777 0.255,-0.795 0.496,-1.565 0.73,-2.326 1.115,0.692 1.988,2.052 3.03,2.8 C -1.531,-0.659 -0.751,-0.347 0,0"
                   style="fill:#232930;fill-opacity:1;fill-rule:nonzero;stroke:none"
                   id="path330" />
              </g>
            </g>
          </g>
        </g>
        <g
           id="g338"
           transform="translate(360.0576,405.5391)">
          <path
             d="m 0,0 c 0.29,-1.68 -1.083,-3.468 -1.438,-5.095 -0.367,-1.687 0.142,-3.76 -0.801,-5.198 -0.939,-1.43 -2.999,-1.749 -4.358,-2.724 -1.297,-0.931 -2.326,-2.83 -3.895,-3.179 -1.548,-0.345 -2.999,0.961 -4.391,1.25 -1.421,0.296 -3.213,-0.281 -4.336,0.576 -1.109,0.847 -1.231,2.838 -1.939,4.117 -0.676,1.22 -2.148,2.103 -2.34,3.634 -0.191,1.522 0.956,3.121 1.28,4.586 0.336,1.519 -0.034,3.343 0.763,4.657 0.8,1.321 2.544,1.744 3.738,2.726 1.162,0.956 2.108,2.79 3.56,3.282 1.471,0.499 2.892,-0.57 4.294,-0.696 1.474,-0.131 3.38,0.647 4.629,-0.083 1.267,-0.74 1.45,-2.788 2.303,-4.069 C -2.1,2.535 -0.288,1.669 0,0"
             style="fill:#b1882d;fill-opacity:1;fill-rule:nonzero;stroke:none"
             id="path340" />
        </g>
        <g
           id="g342"
           transform="translate(347.1996,411.0545)">
          <path
             d="m 0,0 c -4.713,-0.988 -8.155,-5.884 -7.701,-10.915 0.362,-4.007 3.082,-6.877 6.542,-7.374 0.429,0.009 0.564,0.312 0.543,0.548 -0.018,0.214 -0.09,0.921 -0.155,1.677 -2.087,-0.858 -2.722,-0.002 -2.935,0.47 -0.118,0.24 -0.601,0.956 -0.98,1.096 -0.311,0.108 -0.771,0.439 -0.063,0.597 0.665,0.15 1.199,-0.418 1.382,-0.656 0.881,-1.208 2.063,-0.572 2.528,-0.234 0.024,0.603 0.212,1.045 0.436,1.322 -1.904,-0.166 -3.94,0.206 -4.247,3.676 -0.087,0.989 0.169,1.877 0.654,2.629 -0.105,0.21 -0.484,1.083 -0.127,2.437 0,0 0.691,0.389 2.42,-0.448 0.663,0.348 1.378,0.602 2.101,0.753 0.724,0.152 1.457,0.2 2.155,0.137 1.531,1.531 2.266,1.428 2.266,1.428 0.572,-1.161 0.351,-2.161 0.285,-2.408 0.595,-0.526 0.992,-1.268 1.074,-2.271 0.286,-3.491 -1.633,-4.674 -3.5,-5.293 0.331,-0.219 0.641,-0.708 0.712,-1.556 0.102,-1.208 0.173,-2.18 0.198,-2.485 0.02,-0.236 0.202,-0.485 0.617,-0.307 3.243,1.888 5.396,5.787 5.074,9.801 C 8.874,-2.323 4.718,0.989 0,0"
             style="fill:#ffffff;fill-opacity:1;fill-rule:nonzero;stroke:none"
             id="path344" />
        </g>
        <g
           id="g346"
           transform="translate(256.75,36.5)">
          <path
             d="M 0,0 C 6.875,-3.125 21.5,-4.125 28.25,-1.5 35,1.125 36.875,5.625 25.5,1.375 14.125,-2.875 3.5,-0.25 0,0"
             style="fill:#3a2c4c;fill-opacity:1;fill-rule:nonzero;stroke:none"
             id="path348" />
        </g>
        <g
           id="g350"
           transform="translate(169.875,35.25)">
          <path
             d="M 0,0 C -7.75,-0.625 -16.75,-2.5 -15.375,3.625 -17.625,-0.125 -19.375,-7 0,0"
             style="fill:#3a2c4c;fill-opacity:1;fill-rule:nonzero;stroke:none"
             id="path352" />
        </g>
        <g
           id="g354"
           transform="translate(257,171.5)">
          <path
             d="m 0,0 c -5.333,-12.167 -28.996,-82.907 -49,-107.167 -15.667,-19 -26.333,-25 -38.5,-28.333 -4.07,-1.115 9.333,5.5 14.833,15.333 4.92,8.796 17,7.334 24.834,21.834 4.858,8.992 47,101.5 47.833,104.666 C 0.833,9.5 5,5.25 0.25,-15.75 c -4.554,-20.135 -15.176,-62.009 -17.75,-83 -3.25,-26.5 26.25,-32.75 23.25,-37.75 -21,2.75 -30,26.25 -28.5,33 C -21,-77 -0.25,-6.25 0,0"
             style="fill:#18121d;fill-opacity:1;fill-rule:nonzero;stroke:none"
             id="path356" />
        </g>
      </g>
    </g>
    <g
       id="g358"
       transform="translate(390.75,396)">
      <path
         d="M 0,0 -1.5,1 -1.75,8.25 0,9 4.5,3.25 4.75,1.5 Z"
         style="fill:#38c3f2;fill-opacity:1;fill-rule:nonzero;stroke:none"
         id="path360" />
    </g>
    <g
       id="g362"
       transform="translate(401.25,461.25)">
      <path
         d="m 0,0 -2.75,-3.25 3.5,-2 z"
         style="fill:#38c3f2;fill-opacity:1;fill-rule:nonzero;stroke:none"
         id="path364" />
    </g>
    <g
       id="g366"
       transform="translate(74.3333,54.6667)">
      <path
         d="m 0,0 -2,-1.333 0.333,-2 L 5.667,-3 8,-1 7.667,1.333 Z"
         style="fill:#38c3f2;fill-opacity:1;fill-rule:nonzero;stroke:none"
         id="path368" />
    </g>
    <g
       id="g370">
      <g
         id="g372"
         clip-path="url(#clipPath376)">
        <g
           id="g378"
           transform="translate(294.6667,65.6667)">
          <path
             d="M 0,0 C 0,0 9.667,-2 11.333,-1.667 13,-1.333 18,1.667 18,1.667 l -1,3 L 12,1 C 12,1 6.333,2.333 4.667,2.333 3,2.333 1.667,-0.333 0,0"
             style="fill:#38c3f2;fill-opacity:1;fill-rule:nonzero;stroke:none"
             id="path380" />
        </g>
        <g
           id="g382"
           transform="translate(392.3333,416)">
          <path
             d="M 0,0 C 2.667,0.667 7.333,1.333 8.667,1.333 10,1.333 7.333,5 7.333,5 L -1,2.667 Z"
             style="fill:#885aa5;fill-opacity:1;fill-rule:nonzero;stroke:none"
             id="path384" />
        </g>
        <g
           id="g386"
           transform="translate(371.9167,476.8333)">
          <path
             d="m 0,0 7,5 1.5,-13 -4,-2 z"
             style="fill:#885aa5;fill-opacity:1;fill-rule:nonzero;stroke:none"
             id="path388" />
        </g>
        <g
           id="g390"
           transform="translate(369.6667,428)">
          <path
             d="M 0,0 C 0.667,2.333 2,8.667 1.667,11.333 1.333,14 8,12 8,12 8,12 4.333,3 3,1.667 1.667,0.333 0,0 0,0"
             style="fill:#4baa4f;fill-opacity:1;fill-rule:nonzero;stroke:none"
             id="path392" />
        </g>
        <g
           id="g394"
           transform="translate(433.4669,427.3214)">
          <path
             d="m 0,0 -2.88,-3.546 13.66,0.999 1.832,4.45 z"
             style="fill:#4baa4f;fill-opacity:1;fill-rule:nonzero;stroke:none"
             id="path396" />
        </g>
        <g
           id="g398"
           transform="translate(121,24)">
          <path
             d="M 0,0 5,0.333 8.667,3.667 2.667,5 Z"
             style="fill:#4baa4f;fill-opacity:1;fill-rule:nonzero;stroke:none"
             id="path400" />
        </g>
        <g
           id="g402"
           transform="translate(421.6667,358)">
          <path
             d="M 0,0 1.667,1.667 3,-3.667 0.333,-3.333 Z"
             style="fill:#4baa4f;fill-opacity:1;fill-rule:nonzero;stroke:none"
             id="path404" />
        </g>
        <g
           id="g406"
           transform="translate(327.5,37.5)">
          <path
             d="M 0,0 -4.5,-6 2,-4.5 4.5,-2 Z"
             style="fill:#885aa5;fill-opacity:1;fill-rule:nonzero;stroke:none"
             id="path408" />
        </g>
        <g
           id="g410"
           transform="translate(120.5,45)">
          <path
             d="m 0,0 6.5,-1 4,3.5 -9,0.5 z"
             style="fill:#885aa5;fill-opacity:1;fill-rule:nonzero;stroke:none"
             id="path412" />
        </g>
        <g
           id="g414"
           transform="translate(417,461.5)">
          <path
             d="m 0,0 c 5.5,5.5 6.5,7 9.5,7.5 0.75,-1.25 1.5,-2 2,-4 C 7,3.5 1,-2.5 1,-2.5 Z"
             style="fill:#885aa5;fill-opacity:1;fill-rule:nonzero;stroke:none"
             id="path416" />
        </g>
        <g
           id="g418"
           transform="translate(387,425.6667)">
          <path
             d="m 0,0 -0.667,4 h 4 L 2.667,-0.667 Z"
             style="fill:#38c3f2;fill-opacity:1;fill-rule:nonzero;stroke:none"
             id="path420" />
        </g>
        <g
           id="g422"
           transform="translate(141,58)">
          <path
             d="M 0,0 6,-0.667 9.333,2 4,4.667 Z"
             style="fill:#38c3f2;fill-opacity:1;fill-rule:nonzero;stroke:none"
             id="path424" />
        </g>
        <g
           id="g426"
           transform="translate(317.6667,50.3333)">
          <path
             d="m 0,0 h 6 l -0.667,4.667 -8,-1.334 z"
             style="fill:#4baa4f;fill-opacity:1;fill-rule:nonzero;stroke:none"
             id="path428" />
        </g>
        <g
           id="g430"
           transform="translate(436.3286,374.4683)">
          <path
             d="m 0,0 c 0,0 3.663,-7.174 2.524,-9.676 -1.138,-2.502 7.708,-1.021 7.708,-1.021 L 3.747,0.426 Z"
             style="fill:#38c3f2;fill-opacity:1;fill-rule:nonzero;stroke:none"
             id="path432" />
        </g>
        <g
           id="g434"
           transform="translate(63,37)">
          <path
             d="m 0,0 -2.5,4.5 h 7 l -1,-4 z"
             style="fill:#4baa4f;fill-opacity:1;fill-rule:nonzero;stroke:none"
             id="path436" />
        </g>
        <g
           id="g438"
           transform="translate(385.6667,42.3333)">
          <path
             d="M 0,0 -4,3 -0.333,3.667 5.667,2 Z"
             style="fill:#38c3f2;fill-opacity:1;fill-rule:nonzero;stroke:none"
             id="path440" />
        </g>
        <g
           id="g442"
           transform="translate(122,57)">
          <path
             d="m 0,0 -2.5,-4 5,1.5 1,4 z"
             style="fill:#4baa4f;fill-opacity:1;fill-rule:nonzero;stroke:none"
             id="path444" />
        </g>
        <g
           id="g446"
           transform="translate(381,58)">
          <path
             d="M 0,0 14,1.5 12.5,-1 h -9 z"
             style="fill:#4baa4f;fill-opacity:1;fill-rule:nonzero;stroke:none"
             id="path448" />
        </g>
        <g
           id="g450"
           transform="translate(46,47.5)">
          <path
             d="m 0,0 2.5,2.5 3.5,-3 -4,-2 z"
             style="fill:#885aa5;fill-opacity:1;fill-rule:nonzero;stroke:none"
             id="path452" />
        </g>
        <g
           id="g454"
           transform="translate(85,26.5)">
          <path
             d="M 0,0 7,-0.5 6.5,-4 0,-3 Z"
             style="fill:#885aa5;fill-opacity:1;fill-rule:nonzero;stroke:none"
             id="path456" />
        </g>
        <g
           id="g458"
           transform="translate(318.5,64)">
          <path
             d="M 0,0 H 6.5 L 4,-2.5 h -6.5 z"
             style="fill:#885aa5;fill-opacity:1;fill-rule:nonzero;stroke:none"
             id="path460" />
        </g>
        <g
           id="g462"
           transform="translate(261.25,407)">
          <path
             d="M 0,0 -2,-3.5 2.5,-6 4.75,-5.75 4.5,-0.25 Z"
             style="fill:#38c3f2;fill-opacity:1;fill-rule:nonzero;stroke:none"
             id="path464" />
        </g>
        <g
           id="g466"
           transform="translate(248.3333,460.3333)">
          <path
             d="M 0,0 C 3.333,-1.667 7,-4.667 8,-7 9,-9.333 9.333,-9.333 10.667,-8.667 12,-8 6.667,2 3.333,2 0,2 0,0 0,0"
             style="fill:#4baa4f;fill-opacity:1;fill-rule:nonzero;stroke:none"
             id="path468" />
        </g>
        <g
           id="g470"
           transform="translate(389.3333,188)">
          <path
             d="m 0,0 c 0,0 4.333,1.667 5.333,1.667 1,0 0.334,-5 0.334,-5 z"
             style="fill:#4baa4f;fill-opacity:1;fill-rule:nonzero;stroke:none"
             id="path472" />
        </g>
        <g
           id="g474"
           transform="translate(163.6667,400.6667)">
          <path
             d="M 0,0 2.667,-4.333 5,-1.667 l -2.667,3 z"
             style="fill:#4baa4f;fill-opacity:1;fill-rule:nonzero;stroke:none"
             id="path476" />
        </g>
        <g
           id="g478"
           transform="translate(270,412.5)">
          <path
             d="M 0,0 5,-0.5 7,-7.5 2.5,-6 Z"
             style="fill:#885aa5;fill-opacity:1;fill-rule:nonzero;stroke:none"
             id="path480" />
        </g>
        <g
           id="g482"
           transform="translate(415,129)">
          <path
             d="M 0,0 3.5,-2.5 5.5,0 Z"
             style="fill:#885aa5;fill-opacity:1;fill-rule:nonzero;stroke:none"
             id="path484" />
        </g>
        <g
           id="g486"
           transform="translate(202.3333,437)">
          <path
             d="m 0,0 1.333,3.333 3.334,-8 -3.334,-4 z"
             style="fill:#38c3f2;fill-opacity:1;fill-rule:nonzero;stroke:none"
             id="path488" />
        </g>
      </g>
    </g>
  </g>
</svg>
